<svg width="200" height="177" viewBox="0 0 200 177" fill="none" xmlns="http://www.w3.org/2000/svg">
<path d="M91.559 24.871C92.9692 25.9765 94.6449 26.9765 96.5512 27.8437C98.4653 28.7148 100.54 29.4218 102.719 29.9492C104.899 30.4765 107.071 30.789 109.172 30.8867C109.622 30.9062 110.063 30.9179 110.496 30.9179C112.09 30.9179 113.594 30.7812 114.969 30.5156C116.914 30.1367 118.563 29.5 119.883 28.625C121.579 27.4922 122.704 25.9609 123.129 24.1953C123.555 22.4258 123.254 20.5508 122.258 18.7695C121.485 17.3867 120.301 16.0703 118.747 14.8476C117.336 13.746 115.657 12.7421 113.751 11.8749C111.836 10.9999 109.758 10.2929 107.583 9.7694C105.399 9.2421 103.231 8.9257 101.133 8.8319C99.0317 8.7343 97.0825 8.8632 95.3325 9.203C93.3872 9.5819 91.7348 10.2186 90.4184 11.0936C88.7231 12.2264 87.5981 13.7577 87.1723 15.5233C86.7465 17.2889 87.0473 19.1639 88.0434 20.953C88.8246 22.3319 90.0043 23.6522 91.559 24.871ZM94.3598 17.0038C94.6567 16.8046 95.3559 16.4335 96.6918 16.1718C97.891 15.9413 99.2895 15.8515 100.817 15.9218C102.465 15.996 104.184 16.246 105.926 16.6679C107.665 17.0858 109.309 17.6444 110.813 18.332C112.188 18.957 113.418 19.6836 114.371 20.4336C115.438 21.2695 115.891 21.9219 116.067 22.2344C116.137 22.3633 116.176 22.457 116.2 22.5195C116.153 22.5664 116.075 22.6328 115.954 22.7148C115.653 22.914 114.954 23.2851 113.622 23.5469C112.422 23.7773 111.012 23.8633 109.5 23.7969C107.848 23.7226 106.129 23.4687 104.387 23.0508C102.645 22.6328 101 22.0703 99.4965 21.3867C98.1215 20.7617 96.8949 20.0351 95.9418 19.289C94.8754 18.453 94.4184 17.8007 94.2426 17.4882C94.1723 17.3593 94.1332 17.2655 94.1098 17.1991C94.1606 17.1483 94.2387 17.0819 94.3598 17.0038Z" fill="white"/>
<path d="M125.996 44.633C125.605 44.2033 125.207 43.7853 124.797 43.3752C121.551 40.1291 117.766 37.5744 113.547 35.7932C109.18 33.9455 104.543 33.008 99.7618 33.008C94.9884 33.008 90.3556 33.9455 85.9888 35.7892C81.774 37.5744 77.9888 40.1251 74.7388 43.3751C74.3247 43.7892 73.9263 44.211 73.5318 44.6407C66.7115 52.0665 62.9698 61.6367 62.9728 71.7817C62.9728 82.512 67.1525 92.602 74.7388 100.188C75.4302 100.879 76.3404 101.231 77.2505 101.231C78.1606 101.231 79.0669 100.883 79.7622 100.188C80.3091 99.641 80.6333 98.957 80.7466 98.246C82.4107 99.309 84.1528 100.239 85.9888 101.012C87.4302 101.621 88.9068 102.121 90.4029 102.535C92.9498 105.16 96.2115 107.039 99.7662 107.039C103.321 107.039 106.583 105.164 109.129 102.535C110.626 102.125 112.102 101.625 113.547 101.012C115.379 100.238 117.129 99.305 118.79 98.246C118.907 98.957 119.227 99.637 119.774 100.188C120.469 100.879 121.376 101.231 122.286 101.231C123.196 101.231 124.102 100.883 124.797 100.188C132.383 92.602 136.567 82.512 136.567 71.7817C136.564 61.6337 132.821 52.0627 125.997 44.6337L125.996 44.633ZM88.762 42.3283C92.2464 40.8556 95.9495 40.1056 99.774 40.1056C103.594 40.1056 107.301 40.8517 110.786 42.3283C114.153 43.7541 117.181 45.7931 119.782 48.3947C119.868 48.4806 119.946 48.5666 120.028 48.6525C120.27 48.8986 120.509 49.1486 120.739 49.3986C122.888 51.7619 124.602 54.4416 125.849 57.3869C127.321 60.8713 128.071 64.5783 128.071 68.3989C128.071 72.2192 127.325 75.9262 125.849 79.411C124.423 82.782 122.384 85.809 119.782 88.407C118.149 90.04 116.345 91.454 114.395 92.63C114.485 92.067 114.536 91.524 114.536 91.005C114.536 84.837 107.927 81.47 99.7741 81.47C91.6218 81.47 85.016 84.833 85.016 91.005C85.016 91.524 85.0668 92.067 85.1567 92.63C83.2075 91.45 81.4028 90.04 79.77 88.407C77.1684 85.805 75.1294 82.782 73.7075 79.411C72.2348 75.9265 71.4848 72.2195 71.4848 68.3989C71.4848 64.5786 72.2309 60.8716 73.7075 57.3869C74.9536 54.4455 76.6645 51.7619 78.8091 49.4025C79.1216 49.0627 79.4419 48.7228 79.77 48.3947C82.3677 45.797 85.3909 43.7541 88.762 42.3283ZM91.4964 90C93.7073 87.789 96.6487 86.571 99.7737 86.571C102.899 86.571 105.836 87.789 108.051 90C108.746 90.692 108.746 91.817 108.051 92.512C107.703 92.86 107.25 93.032 106.797 93.032C106.34 93.032 105.887 92.856 105.543 92.512C104 90.969 101.957 90.121 99.7776 90.121C97.6018 90.121 95.5549 90.969 94.012 92.512C93.3206 93.203 92.1956 93.203 91.5003 92.512C90.8011 91.817 90.8011 90.696 91.4964 90Z" fill="white"/>
<path d="M87.977 54.492C87.977 59.1053 81.0551 59.1053 81.0551 54.492C81.0551 49.8787 87.977 49.8787 87.977 54.492Z" fill="white"/>
<path d="M118.484 54.492C118.484 59.1053 111.562 59.1053 111.562 54.492C111.562 49.8787 118.484 49.8787 118.484 54.492Z" fill="white"/>
<path d="M161.203 132.976C161.043 133.024 160.787 133.072 160.435 133.12C160.099 133.168 159.747 133.192 159.379 133.192C159.027 133.192 158.707 133.168 158.419 133.12C158.147 133.072 157.915 132.976 157.723 132.832C157.531 132.688 157.379 132.496 157.267 132.256C157.171 132 157.123 131.672 157.123 131.272V124.072C157.123 123.704 157.187 123.392 157.315 123.136C157.459 122.864 157.659 122.624 157.915 122.416C158.171 122.208 158.483 122.024 158.851 121.864C159.235 121.688 159.643 121.536 160.075 121.408C160.507 121.28 160.955 121.184 161.419 121.12C161.883 121.04 162.347 121 162.811 121C163.579 121 164.187 121.152 164.635 121.456C165.083 121.744 165.307 122.224 165.307 122.896C165.307 123.12 165.275 123.344 165.211 123.568C165.147 123.776 165.067 123.968 164.971 124.144C164.635 124.144 164.291 124.16 163.939 124.192C163.587 124.224 163.243 124.272 162.907 124.336C162.571 124.4 162.251 124.472 161.947 124.552C161.659 124.616 161.411 124.696 161.203 124.792V132.976Z" fill="white"/>
<path d="M150.119 133.384C149.175 133.384 148.295 133.256 147.479 133C146.679 132.728 145.975 132.328 145.367 131.8C144.775 131.272 144.303 130.608 143.951 129.808C143.615 129.008 143.447 128.072 143.447 127C143.447 125.944 143.615 125.04 143.951 124.288C144.303 123.52 144.759 122.896 145.319 122.416C145.879 121.92 146.519 121.56 147.239 121.336C147.959 121.096 148.695 120.976 149.447 120.976C150.295 120.976 151.063 121.104 151.751 121.36C152.455 121.616 153.055 121.968 153.551 122.416C154.063 122.864 154.455 123.4 154.727 124.024C155.015 124.648 155.159 125.328 155.159 126.064C155.159 126.608 155.007 127.024 154.703 127.312C154.399 127.6 153.975 127.784 153.431 127.864L147.503 128.752C147.679 129.28 148.039 129.68 148.583 129.952C149.127 130.208 149.751 130.336 150.455 130.336C151.111 130.336 151.727 130.256 152.303 130.096C152.895 129.92 153.375 129.72 153.743 129.496C153.999 129.656 154.215 129.88 154.391 130.168C154.567 130.456 154.655 130.76 154.655 131.08C154.655 131.8 154.319 132.336 153.647 132.688C153.135 132.96 152.559 133.144 151.919 133.24C151.279 133.336 150.679 133.384 150.119 133.384ZM149.447 123.952C149.063 123.952 148.727 124.016 148.439 124.144C148.167 124.272 147.943 124.44 147.767 124.648C147.591 124.84 147.455 125.064 147.359 125.32C147.279 125.56 147.231 125.808 147.215 126.064L151.319 125.392C151.271 125.072 151.095 124.752 150.791 124.432C150.487 124.112 150.039 123.952 149.447 123.952Z" fill="white"/>
<path d="M138.562 128.992C138.562 129.408 138.69 129.704 138.946 129.88C139.218 130.056 139.594 130.144 140.074 130.144C140.314 130.144 140.562 130.128 140.818 130.096C141.074 130.048 141.298 129.992 141.49 129.928C141.634 130.104 141.754 130.304 141.85 130.528C141.962 130.736 142.018 130.992 142.018 131.296C142.018 131.904 141.786 132.4 141.322 132.784C140.874 133.168 140.074 133.36 138.922 133.36C137.514 133.36 136.426 133.04 135.658 132.4C134.906 131.76 134.53 130.72 134.53 129.28V119.008C134.706 118.96 134.954 118.912 135.274 118.864C135.61 118.8 135.962 118.768 136.33 118.768C137.034 118.768 137.578 118.896 137.962 119.152C138.362 119.392 138.562 119.912 138.562 120.712V122.248H141.706C141.802 122.424 141.89 122.648 141.97 122.92C142.066 123.176 142.114 123.464 142.114 123.784C142.114 124.344 141.986 124.752 141.73 125.008C141.49 125.248 141.162 125.368 140.746 125.368H138.562V128.992Z" fill="white"/>
<path d="M126.42 130.408C126.692 130.408 126.988 130.384 127.308 130.336C127.644 130.272 127.892 130.192 128.052 130.096V128.176L126.324 128.32C125.876 128.352 125.508 128.448 125.22 128.608C124.932 128.768 124.788 129.008 124.788 129.328C124.788 129.648 124.908 129.912 125.148 130.12C125.404 130.312 125.828 130.408 126.42 130.408ZM126.228 120.976C127.092 120.976 127.876 121.064 128.58 121.24C129.3 121.416 129.908 121.688 130.404 122.056C130.916 122.408 131.308 122.864 131.58 123.424C131.852 123.968 131.988 124.616 131.988 125.368V130.744C131.988 131.16 131.868 131.504 131.628 131.776C131.404 132.032 131.132 132.256 130.812 132.448C129.772 133.072 128.308 133.384 126.42 133.384C125.572 133.384 124.804 133.304 124.116 133.144C123.444 132.984 122.86 132.744 122.364 132.424C121.884 132.104 121.508 131.696 121.236 131.2C120.98 130.704 120.852 130.128 120.852 129.472C120.852 128.368 121.18 127.52 121.836 126.928C122.492 126.336 123.508 125.968 124.884 125.824L128.028 125.488V125.32C128.028 124.856 127.82 124.528 127.404 124.336C127.004 124.128 126.42 124.024 125.652 124.024C125.044 124.024 124.452 124.088 123.876 124.216C123.3 124.344 122.78 124.504 122.316 124.696C122.108 124.552 121.932 124.336 121.788 124.048C121.644 123.744 121.572 123.432 121.572 123.112C121.572 122.696 121.668 122.368 121.86 122.128C122.068 121.872 122.38 121.656 122.796 121.48C123.26 121.304 123.804 121.176 124.428 121.096C125.068 121.016 125.668 120.976 126.228 120.976Z" fill="white"/>
<path d="M107.741 122.008C107.917 121.928 108.189 121.84 108.557 121.744C108.941 121.632 109.325 121.576 109.709 121.576C110.381 121.576 110.941 121.68 111.389 121.888C111.837 122.08 112.109 122.368 112.205 122.752C112.381 123.408 112.541 124.024 112.685 124.6C112.845 125.16 112.997 125.704 113.141 126.232C113.285 126.744 113.421 127.256 113.549 127.768C113.693 128.28 113.829 128.816 113.957 129.376H114.077C114.221 128.4 114.349 127.472 114.461 126.592C114.573 125.696 114.677 124.824 114.773 123.976C114.869 123.112 114.965 122.264 115.061 121.432C115.157 120.584 115.253 119.728 115.349 118.864C115.941 118.528 116.573 118.36 117.245 118.36C117.837 118.36 118.349 118.488 118.781 118.744C119.213 119 119.429 119.432 119.429 120.04C119.429 120.392 119.389 120.896 119.309 121.552C119.245 122.192 119.149 122.912 119.021 123.712C118.909 124.512 118.773 125.352 118.613 126.232C118.453 127.112 118.285 127.952 118.109 128.752C117.933 129.552 117.749 130.28 117.557 130.936C117.381 131.576 117.213 132.072 117.053 132.424C116.813 132.648 116.421 132.832 115.877 132.976C115.333 133.12 114.773 133.192 114.197 133.192C113.445 133.192 112.805 133.096 112.277 132.904C111.765 132.696 111.453 132.408 111.341 132.04C111.133 131.4 110.909 130.64 110.669 129.76C110.429 128.88 110.173 127.912 109.901 126.856C109.677 127.896 109.445 128.912 109.205 129.904C108.965 130.896 108.749 131.736 108.557 132.424C108.317 132.648 107.957 132.832 107.477 132.976C106.997 133.12 106.469 133.192 105.893 133.192C105.173 133.192 104.517 133.096 103.925 132.904C103.349 132.696 102.973 132.408 102.797 132.04C102.653 131.752 102.493 131.328 102.317 130.768C102.157 130.192 101.989 129.544 101.813 128.824C101.637 128.088 101.453 127.296 101.261 126.448C101.085 125.6 100.917 124.752 100.757 123.904C100.613 123.056 100.477 122.232 100.349 121.432C100.221 120.616 100.125 119.872 100.061 119.2C100.285 118.992 100.597 118.8 100.997 118.624C101.397 118.448 101.829 118.36 102.293 118.36C102.901 118.36 103.397 118.496 103.781 118.768C104.181 119.024 104.429 119.464 104.525 120.088C104.781 121.72 104.989 123.08 105.149 124.168C105.325 125.256 105.461 126.152 105.557 126.856C105.669 127.544 105.749 128.08 105.797 128.464C105.845 128.848 105.893 129.152 105.941 129.376H106.061C106.205 128.736 106.341 128.144 106.469 127.6C106.597 127.056 106.725 126.512 106.853 125.968C106.997 125.408 107.141 124.816 107.285 124.192C107.429 123.552 107.581 122.824 107.741 122.008Z" fill="white"/>
<path d="M93.9318 129.52C93.9318 130.736 93.4758 131.688 92.5638 132.376C91.6518 133.064 90.3077 133.408 88.5317 133.408C87.8597 133.408 87.2358 133.36 86.6598 133.264C86.0838 133.168 85.5877 133.024 85.1717 132.832C84.7717 132.624 84.4518 132.368 84.2118 132.064C83.9877 131.76 83.8758 131.4 83.8758 130.984C83.8758 130.6 83.9557 130.28 84.1157 130.024C84.2757 129.752 84.4677 129.528 84.6917 129.352C85.1557 129.608 85.6837 129.84 86.2757 130.048C86.8837 130.24 87.5798 130.336 88.3638 130.336C88.8598 130.336 89.2357 130.264 89.4917 130.12C89.7637 129.976 89.8997 129.784 89.8997 129.544C89.8997 129.32 89.8038 129.144 89.6118 129.016C89.4198 128.888 89.0997 128.784 88.6517 128.704L87.9318 128.56C86.5398 128.288 85.4997 127.864 84.8117 127.288C84.1397 126.696 83.8037 125.856 83.8037 124.768C83.8037 124.176 83.9318 123.64 84.1878 123.16C84.4438 122.68 84.8037 122.28 85.2677 121.96C85.7317 121.64 86.2838 121.392 86.9238 121.216C87.5798 121.04 88.2998 120.952 89.0838 120.952C89.6758 120.952 90.2277 121 90.7397 121.096C91.2677 121.176 91.7238 121.304 92.1077 121.48C92.4918 121.656 92.7958 121.888 93.0198 122.176C93.2438 122.448 93.3558 122.776 93.3558 123.16C93.3558 123.528 93.2838 123.848 93.1398 124.12C93.0118 124.376 92.8438 124.592 92.6357 124.768C92.5077 124.688 92.3158 124.608 92.0597 124.528C91.8038 124.432 91.5237 124.352 91.2197 124.288C90.9157 124.208 90.6037 124.144 90.2837 124.096C89.9797 124.048 89.6997 124.024 89.4437 124.024C88.9157 124.024 88.5077 124.088 88.2197 124.216C87.9317 124.328 87.7878 124.512 87.7878 124.768C87.7878 124.944 87.8678 125.088 88.0278 125.2C88.1878 125.312 88.4918 125.416 88.9398 125.512L89.6838 125.68C91.2197 126.032 92.3077 126.52 92.9478 127.144C93.6038 127.752 93.9318 128.544 93.9318 129.52Z" fill="white"/>
<path d="M70.123 121.504C70.283 121.456 70.531 121.408 70.867 121.36C71.219 121.312 71.579 121.288 71.947 121.288C72.299 121.288 72.611 121.312 72.883 121.36C73.171 121.408 73.411 121.504 73.603 121.648C73.795 121.792 73.939 121.992 74.035 122.248C74.147 122.488 74.203 122.808 74.203 123.208V128.368C74.203 129.024 74.363 129.496 74.683 129.784C75.003 130.056 75.467 130.192 76.075 130.192C76.443 130.192 76.739 130.16 76.963 130.096C77.203 130.032 77.387 129.968 77.515 129.904V121.504C77.675 121.456 77.923 121.408 78.259 121.36C78.611 121.312 78.971 121.288 79.339 121.288C79.691 121.288 80.003 121.312 80.275 121.36C80.563 121.408 80.803 121.504 80.995 121.648C81.187 121.792 81.331 121.992 81.427 122.248C81.539 122.488 81.595 122.808 81.595 123.208V130.504C81.595 131.304 81.259 131.904 80.587 132.304C80.027 132.656 79.355 132.92 78.571 133.096C77.803 133.288 76.963 133.384 76.051 133.384C75.187 133.384 74.387 133.288 73.651 133.096C72.931 132.904 72.307 132.608 71.779 132.208C71.251 131.808 70.843 131.296 70.555 130.672C70.267 130.032 70.123 129.264 70.123 128.368V121.504Z" fill="white"/>
<path d="M68.1505 129.52C68.1505 130.736 67.6945 131.688 66.7825 132.376C65.8705 133.064 64.5265 133.408 62.7505 133.408C62.0785 133.408 61.4545 133.36 60.8785 133.264C60.3025 133.168 59.8065 133.024 59.3905 132.832C58.9905 132.624 58.6705 132.368 58.4305 132.064C58.2065 131.76 58.0945 131.4 58.0945 130.984C58.0945 130.6 58.1745 130.28 58.3345 130.024C58.4945 129.752 58.6865 129.528 58.9105 129.352C59.3745 129.608 59.9025 129.84 60.4945 130.048C61.1025 130.24 61.7985 130.336 62.5825 130.336C63.0785 130.336 63.4545 130.264 63.7105 130.12C63.9825 129.976 64.1185 129.784 64.1185 129.544C64.1185 129.32 64.0225 129.144 63.8305 129.016C63.6385 128.888 63.3185 128.784 62.8705 128.704L62.1505 128.56C60.7585 128.288 59.7185 127.864 59.0305 127.288C58.3585 126.696 58.0225 125.856 58.0225 124.768C58.0225 124.176 58.1505 123.64 58.4065 123.16C58.6625 122.68 59.0225 122.28 59.4865 121.96C59.9505 121.64 60.5025 121.392 61.1425 121.216C61.7985 121.04 62.5185 120.952 63.3025 120.952C63.8945 120.952 64.4465 121 64.9585 121.096C65.4865 121.176 65.9425 121.304 66.3265 121.48C66.7105 121.656 67.0145 121.888 67.2385 122.176C67.4625 122.448 67.5745 122.776 67.5745 123.16C67.5745 123.528 67.5025 123.848 67.3585 124.12C67.2305 124.376 67.0625 124.592 66.8545 124.768C66.7265 124.688 66.5345 124.608 66.2785 124.528C66.0225 124.432 65.7425 124.352 65.4385 124.288C65.1345 124.208 64.8225 124.144 64.5025 124.096C64.1985 124.048 63.9185 124.024 63.6625 124.024C63.1345 124.024 62.7265 124.088 62.4385 124.216C62.1505 124.328 62.0065 124.512 62.0065 124.768C62.0065 124.944 62.0865 125.088 62.2465 125.2C62.4065 125.312 62.7105 125.416 63.1585 125.512L63.9025 125.68C65.4385 126.032 66.5265 126.52 67.1665 127.144C67.8225 127.752 68.1505 128.544 68.1505 129.52Z" fill="white"/>
<path d="M51.3066 133.384C50.3626 133.384 49.4826 133.256 48.6666 133C47.8666 132.728 47.1626 132.328 46.5546 131.8C45.9626 131.272 45.4906 130.608 45.1386 129.808C44.8026 129.008 44.6346 128.072 44.6346 127C44.6346 125.944 44.8026 125.04 45.1386 124.288C45.4906 123.52 45.9466 122.896 46.5066 122.416C47.0666 121.92 47.7066 121.56 48.4266 121.336C49.1466 121.096 49.8826 120.976 50.6346 120.976C51.4826 120.976 52.2506 121.104 52.9386 121.36C53.6426 121.616 54.2426 121.968 54.7386 122.416C55.2506 122.864 55.6426 123.4 55.9146 124.024C56.2026 124.648 56.3466 125.328 56.3466 126.064C56.3466 126.608 56.1946 127.024 55.8906 127.312C55.5866 127.6 55.1626 127.784 54.6186 127.864L48.6906 128.752C48.8666 129.28 49.2266 129.68 49.7706 129.952C50.3146 130.208 50.9386 130.336 51.6426 130.336C52.2986 130.336 52.9146 130.256 53.4906 130.096C54.0826 129.92 54.5626 129.72 54.9306 129.496C55.1866 129.656 55.4026 129.88 55.5786 130.168C55.7546 130.456 55.8426 130.76 55.8426 131.08C55.8426 131.8 55.5066 132.336 54.8346 132.688C54.3226 132.96 53.7466 133.144 53.1066 133.24C52.4666 133.336 51.8666 133.384 51.3066 133.384ZM50.6346 123.952C50.2506 123.952 49.9146 124.016 49.6266 124.144C49.3546 124.272 49.1306 124.44 48.9546 124.648C48.7786 124.84 48.6426 125.064 48.5466 125.32C48.4666 125.56 48.4186 125.808 48.4026 126.064L52.5066 125.392C52.4586 125.072 52.2826 124.752 51.9786 124.432C51.6746 124.112 51.2266 123.952 50.6346 123.952Z" fill="white"/>
<path d="M38.2 118.456C38.376 118.424 38.656 118.384 39.04 118.336C39.424 118.272 39.792 118.24 40.144 118.24C40.512 118.24 40.832 118.272 41.104 118.336C41.392 118.384 41.632 118.48 41.824 118.624C42.016 118.768 42.16 118.968 42.256 119.224C42.352 119.48 42.4 119.816 42.4 120.232V129.112C42.4 130.536 41.992 131.608 41.176 132.328C40.36 133.032 39.16 133.384 37.576 133.384C36.744 133.384 36.072 133.256 35.56 133C35.192 132.824 34.92 132.584 34.744 132.28C34.584 131.976 34.504 131.632 34.504 131.248C34.504 130.928 34.544 130.648 34.624 130.408C34.72 130.168 34.832 129.976 34.96 129.832C35.264 129.896 35.52 129.944 35.728 129.976C35.952 129.992 36.192 130 36.448 130C37.072 130 37.52 129.848 37.792 129.544C38.064 129.224 38.2 128.76 38.2 128.152V118.456Z" fill="white"/>
</svg>
