<svg width="756" height="756" viewBox="0 0 756 756" fill="none" xmlns="http://www.w3.org/2000/svg">
<path d="M346.093 180.952C351.423 185.131 357.758 188.911 364.963 192.189C372.199 195.482 380.041 198.154 388.278 200.148C396.518 202.141 404.728 203.322 412.67 203.692C414.371 203.765 416.038 203.81 417.675 203.81C423.7 203.81 429.385 203.293 434.583 202.289C441.935 200.857 448.168 198.45 453.158 195.143C459.569 190.861 463.821 185.072 465.428 178.398C467.038 171.71 465.9 164.622 462.135 157.889C459.213 152.662 454.738 147.686 448.864 143.064C443.53 138.9 437.183 135.105 429.979 131.827C422.74 128.52 414.885 125.847 406.664 123.868C398.408 121.875 390.213 120.679 382.283 120.325C374.34 119.956 366.972 120.443 360.357 121.727C353.003 123.16 346.757 125.566 341.781 128.874C335.373 133.156 331.121 138.944 329.511 145.618C327.902 152.292 329.039 159.38 332.804 166.142C335.757 171.355 340.216 176.345 346.093 180.952ZM356.68 151.214C357.802 150.461 360.445 149.059 365.495 148.069C370.028 147.198 375.314 146.859 381.088 147.124C387.318 147.405 393.815 148.35 400.4 149.945C406.974 151.524 413.188 153.636 418.873 156.235C424.071 158.597 428.72 161.344 432.322 164.179C436.356 167.339 438.068 169.805 438.733 170.986C438.998 171.473 439.145 171.827 439.236 172.064C439.058 172.241 438.763 172.492 438.306 172.802C437.168 173.555 434.526 174.958 429.491 175.947C424.955 176.818 419.625 177.143 413.91 176.892C407.665 176.611 401.168 175.652 394.583 174.072C387.998 172.492 381.78 170.366 376.097 167.782C370.899 165.419 366.263 162.673 362.66 159.852C358.629 156.692 356.901 154.227 356.237 153.045C355.971 152.558 355.823 152.204 355.735 151.953C355.927 151.761 356.222 151.51 356.68 151.214Z" fill="black"/>
<path d="M476.265 255.653C474.787 254.028 473.282 252.448 471.733 250.898C459.463 238.628 445.155 228.971 429.208 222.238C412.7 215.254 395.172 211.71 377.1 211.71C359.056 211.71 341.544 215.254 325.038 222.223C309.106 228.971 294.798 238.613 282.513 250.898C280.947 252.463 279.441 254.058 277.95 255.682C252.169 283.751 238.026 319.927 238.037 358.275C238.037 398.835 253.836 436.976 282.513 465.651C285.126 468.263 288.567 469.593 292.007 469.593C295.447 469.593 298.873 468.278 301.501 465.651C303.568 463.583 304.794 460.997 305.222 458.31C311.512 462.328 318.098 465.843 325.038 468.765C330.486 471.067 336.068 472.957 341.723 474.522C351.35 484.445 363.679 491.547 377.116 491.547C390.553 491.547 402.884 484.46 412.508 474.522C418.166 472.973 423.745 471.082 429.208 468.765C436.133 465.84 442.748 462.313 449.026 458.31C449.468 460.997 450.678 463.568 452.746 465.651C455.373 468.263 458.801 469.593 462.241 469.593C465.681 469.593 469.105 468.278 471.733 465.651C500.408 436.976 516.223 398.835 516.223 358.275C516.212 319.915 502.063 283.737 476.269 255.655L476.265 255.653ZM335.52 246.941C348.691 241.374 362.689 238.539 377.146 238.539C391.585 238.539 405.598 241.359 418.771 246.941C431.498 252.33 442.944 260.038 452.776 269.872C453.101 270.197 453.396 270.522 453.706 270.846C454.621 271.777 455.524 272.722 456.393 273.667C464.517 282.6 470.995 292.729 475.709 303.862C481.273 317.034 484.108 331.046 484.108 345.488C484.108 359.929 481.288 373.941 475.709 387.114C470.319 399.856 462.611 411.298 452.776 421.118C446.603 427.291 439.784 432.636 432.413 437.081C432.753 434.953 432.946 432.901 432.946 430.939C432.946 407.624 407.964 394.897 377.146 394.897C346.33 394.897 321.36 407.609 321.36 430.939C321.36 432.901 321.552 434.953 321.892 437.081C314.524 432.621 307.702 427.291 301.531 421.118C291.696 411.283 283.989 399.856 278.614 387.114C273.047 373.942 270.212 359.93 270.212 345.488C270.212 331.047 273.033 317.035 278.614 303.862C283.325 292.744 289.792 282.6 297.898 273.681C299.08 272.397 300.29 271.112 301.531 269.872C311.35 260.053 322.778 252.33 335.52 246.941ZM345.856 427.14C354.214 418.782 365.332 414.178 377.145 414.178C388.958 414.178 400.06 418.782 408.433 427.14C411.06 429.756 411.06 434.008 408.433 436.635C407.117 437.951 405.405 438.601 403.693 438.601C401.965 438.601 400.253 437.936 398.952 436.635C393.12 430.803 385.397 427.597 377.159 427.597C368.935 427.597 361.197 430.803 355.365 436.635C352.752 439.247 348.499 439.247 345.871 436.635C343.228 434.008 343.228 429.771 345.856 427.14Z" fill="black"/>
<path d="M332.553 292.92C332.553 310.358 306.388 310.358 306.388 292.92C306.388 275.481 332.553 275.481 332.553 292.92Z" fill="black"/>
<path d="M447.87 292.92C447.87 310.358 421.704 310.358 421.704 292.92C421.704 275.481 447.87 275.481 447.87 292.92Z" fill="black"/>
<path d="M609.347 589.589C608.742 589.771 607.775 589.952 606.444 590.134C605.174 590.315 603.844 590.406 602.452 590.406C601.122 590.406 599.912 590.315 598.824 590.134C597.796 589.952 596.919 589.589 596.193 589.045C595.467 588.501 594.892 587.775 594.469 586.868C594.106 585.9 593.925 584.66 593.925 583.148V555.932C593.925 554.541 594.167 553.362 594.651 552.394C595.195 551.366 595.951 550.459 596.919 549.672C597.886 548.886 599.066 548.191 600.457 547.586C601.908 546.921 603.45 546.346 605.083 545.862C606.716 545.378 608.41 545.016 610.164 544.774C611.918 544.471 613.672 544.32 615.425 544.32C618.328 544.32 620.627 544.895 622.32 546.044C624.014 547.132 624.86 548.947 624.86 551.487C624.86 552.334 624.739 553.18 624.497 554.027C624.256 554.813 623.953 555.539 623.59 556.204C622.32 556.204 621.02 556.265 619.689 556.386C618.359 556.507 617.058 556.688 615.788 556.93C614.518 557.172 613.309 557.444 612.16 557.747C611.071 557.988 610.133 558.291 609.347 558.654V589.589Z" fill="black"/>
<path d="M567.45 591.132C563.882 591.132 560.555 590.648 557.471 589.68C554.447 588.652 551.786 587.14 549.487 585.144C547.25 583.148 545.465 580.638 544.135 577.614C542.865 574.59 542.23 571.052 542.23 567C542.23 563.008 542.865 559.591 544.135 556.749C545.465 553.846 547.189 551.487 549.306 549.672C551.423 547.798 553.842 546.437 556.563 545.59C559.285 544.683 562.067 544.229 564.91 544.229C568.115 544.229 571.018 544.713 573.619 545.681C576.28 546.648 578.548 547.979 580.423 549.672C582.358 551.366 583.84 553.392 584.868 555.751C585.957 558.109 586.501 560.68 586.501 563.462C586.501 565.518 585.927 567.091 584.777 568.179C583.628 569.268 582.026 569.963 579.969 570.266L557.561 573.623C558.227 575.618 559.587 577.13 561.644 578.159C563.7 579.126 566.059 579.61 568.72 579.61C571.2 579.61 573.528 579.308 575.705 578.703C577.943 578.038 579.758 577.282 581.149 576.435C582.116 577.04 582.933 577.886 583.598 578.975C584.263 580.064 584.596 581.213 584.596 582.422C584.596 585.144 583.326 587.17 580.786 588.501C578.85 589.529 576.673 590.224 574.254 590.587C571.835 590.95 569.567 591.132 567.45 591.132ZM564.91 555.479C563.458 555.479 562.188 555.72 561.099 556.204C560.071 556.688 559.225 557.323 558.559 558.109C557.894 558.835 557.38 559.682 557.017 560.65C556.715 561.557 556.533 562.494 556.473 563.462L571.986 560.922C571.804 559.712 571.139 558.503 569.99 557.293C568.841 556.083 567.147 555.479 564.91 555.479Z" fill="black"/>
<path d="M523.764 574.53C523.764 576.102 524.248 577.221 525.216 577.886C526.244 578.552 527.665 578.884 529.48 578.884C530.387 578.884 531.324 578.824 532.292 578.703C533.26 578.521 534.107 578.31 534.832 578.068C535.377 578.733 535.83 579.489 536.193 580.336C536.616 581.122 536.828 582.09 536.828 583.239C536.828 585.537 535.951 587.412 534.197 588.864C532.504 590.315 529.48 591.041 525.125 591.041C519.803 591.041 515.69 589.831 512.787 587.412C509.945 584.993 508.523 581.062 508.523 575.618V536.79C509.189 536.609 510.126 536.427 511.336 536.246C512.606 536.004 513.936 535.883 515.327 535.883C517.989 535.883 520.045 536.367 521.496 537.335C523.008 538.242 523.764 540.207 523.764 543.231V549.037H535.649C536.012 549.703 536.344 550.549 536.647 551.578C537.01 552.545 537.191 553.634 537.191 554.844C537.191 556.96 536.707 558.503 535.739 559.47C534.832 560.377 533.592 560.831 532.02 560.831H523.764V574.53Z" fill="black"/>
<path d="M477.868 579.882C478.896 579.882 480.015 579.791 481.224 579.61C482.494 579.368 483.432 579.066 484.037 578.703V571.445L477.505 571.99C475.811 572.111 474.42 572.473 473.332 573.078C472.243 573.683 471.699 574.59 471.699 575.8C471.699 577.009 472.152 578.007 473.059 578.794C474.027 579.519 475.63 579.882 477.868 579.882ZM477.142 544.229C480.408 544.229 483.371 544.562 486.032 545.227C488.754 545.892 491.052 546.921 492.927 548.312C494.863 549.642 496.344 551.366 497.372 553.483C498.401 555.539 498.915 557.988 498.915 560.831V581.152C498.915 582.725 498.461 584.025 497.554 585.053C496.707 586.021 495.679 586.868 494.469 587.593C490.538 589.952 485.004 591.132 477.868 591.132C474.662 591.132 471.759 590.829 469.158 590.224C466.618 589.619 464.411 588.712 462.536 587.503C460.722 586.293 459.3 584.751 458.272 582.876C457.304 581.001 456.821 578.824 456.821 576.344C456.821 572.171 458.06 568.966 460.54 566.728C463.02 564.49 466.86 563.099 472.062 562.555L483.946 561.285V560.65C483.946 558.896 483.16 557.656 481.587 556.93C480.075 556.144 477.868 555.751 474.965 555.751C472.666 555.751 470.429 555.993 468.251 556.476C466.074 556.96 464.108 557.565 462.354 558.291C461.568 557.747 460.903 556.93 460.359 555.841C459.814 554.692 459.542 553.513 459.542 552.303C459.542 550.731 459.905 549.491 460.631 548.584C461.417 547.616 462.596 546.8 464.169 546.134C465.923 545.469 467.979 544.985 470.338 544.683C472.757 544.38 475.025 544.229 477.142 544.229Z" fill="black"/>
<path d="M407.261 548.13C407.926 547.828 408.954 547.495 410.345 547.132C411.797 546.709 413.248 546.497 414.7 546.497C417.24 546.497 419.357 546.89 421.05 547.677C422.744 548.402 423.772 549.491 424.135 550.943C424.8 553.422 425.405 555.751 425.949 557.928C426.554 560.045 427.129 562.101 427.673 564.097C428.217 566.032 428.731 567.968 429.215 569.903C429.759 571.838 430.274 573.865 430.757 575.981H431.211C431.755 572.292 432.239 568.784 432.662 565.458C433.086 562.071 433.479 558.775 433.842 555.569C434.205 552.303 434.568 549.098 434.93 545.953C435.293 542.748 435.656 539.512 436.019 536.246C438.257 534.976 440.646 534.341 443.186 534.341C445.424 534.341 447.359 534.825 448.992 535.792C450.625 536.76 451.442 538.393 451.442 540.691C451.442 542.022 451.29 543.927 450.988 546.407C450.746 548.826 450.383 551.547 449.899 554.571C449.476 557.595 448.962 560.771 448.357 564.097C447.752 567.423 447.117 570.599 446.452 573.623C445.787 576.647 445.091 579.398 444.365 581.878C443.7 584.297 443.065 586.172 442.46 587.503C441.553 588.349 440.071 589.045 438.015 589.589C435.959 590.134 433.842 590.406 431.665 590.406C428.822 590.406 426.403 590.043 424.407 589.317C422.472 588.531 421.292 587.442 420.869 586.051C420.083 583.632 419.236 580.759 418.329 577.433C417.422 574.106 416.454 570.447 415.426 566.456C414.579 570.387 413.702 574.227 412.795 577.977C411.888 581.727 411.071 584.902 410.345 587.503C409.438 588.349 408.077 589.045 406.263 589.589C404.449 590.134 402.453 590.406 400.275 590.406C397.554 590.406 395.074 590.043 392.836 589.317C390.659 588.531 389.238 587.442 388.573 586.051C388.028 584.963 387.423 583.36 386.758 581.243C386.153 579.066 385.518 576.616 384.853 573.895C384.188 571.113 383.492 568.119 382.766 564.913C382.101 561.708 381.466 558.503 380.861 555.297C380.317 552.092 379.803 548.977 379.319 545.953C378.835 542.869 378.472 540.056 378.23 537.516C379.077 536.73 380.257 536.004 381.769 535.339C383.281 534.673 384.914 534.341 386.667 534.341C388.966 534.341 390.841 534.855 392.292 535.883C393.804 536.851 394.742 538.514 395.104 540.873C396.072 547.042 396.858 552.182 397.463 556.295C398.128 560.408 398.642 563.795 399.005 566.456C399.429 569.056 399.731 571.082 399.913 572.534C400.094 573.985 400.275 575.135 400.457 575.981H400.91C401.455 573.562 401.969 571.324 402.453 569.268C402.937 567.212 403.42 565.155 403.904 563.099C404.449 560.982 404.993 558.745 405.537 556.386C406.082 553.967 406.656 551.215 407.261 548.13Z" fill="black"/>
<path d="M355.062 576.526C355.062 581.122 353.339 584.721 349.891 587.321C346.444 589.922 341.363 591.222 334.65 591.222C332.11 591.222 329.751 591.041 327.574 590.678C325.397 590.315 323.522 589.771 321.949 589.045C320.437 588.259 319.228 587.291 318.321 586.142C317.474 584.993 317.051 583.632 317.051 582.06C317.051 580.608 317.353 579.398 317.957 578.431C318.562 577.403 319.288 576.556 320.135 575.891C321.889 576.858 323.884 577.735 326.122 578.521C328.42 579.247 331.052 579.61 334.015 579.61C335.89 579.61 337.311 579.338 338.279 578.794C339.307 578.249 339.821 577.524 339.821 576.616C339.821 575.77 339.458 575.104 338.733 574.621C338.007 574.137 336.797 573.744 335.104 573.441L332.382 572.897C327.121 571.869 323.189 570.266 320.588 568.089C318.048 565.851 316.778 562.676 316.778 558.563C316.778 556.325 317.262 554.299 318.23 552.485C319.198 550.67 320.558 549.158 322.312 547.949C324.066 546.739 326.153 545.802 328.572 545.136C331.052 544.471 333.773 544.139 336.737 544.139C338.975 544.139 341.061 544.32 342.996 544.683C344.992 544.985 346.716 545.469 348.167 546.134C349.619 546.8 350.768 547.677 351.615 548.765C352.462 549.793 352.885 551.033 352.885 552.485C352.885 553.876 352.613 555.085 352.069 556.114C351.585 557.081 350.95 557.898 350.163 558.563C349.679 558.261 348.954 557.958 347.986 557.656C347.018 557.293 345.96 556.991 344.811 556.749C343.661 556.446 342.482 556.204 341.272 556.023C340.123 555.841 339.065 555.751 338.097 555.751C336.101 555.751 334.559 555.993 333.471 556.476C332.382 556.9 331.838 557.595 331.838 558.563C331.838 559.228 332.14 559.773 332.745 560.196C333.35 560.619 334.499 561.012 336.193 561.375L339.005 562.01C344.811 563.341 348.923 565.186 351.343 567.544C353.822 569.843 355.062 572.836 355.062 576.526Z" fill="black"/>
<path d="M265.065 546.225C265.67 546.044 266.607 545.862 267.877 545.681C269.208 545.499 270.569 545.409 271.96 545.409C273.29 545.409 274.47 545.499 275.498 545.681C276.586 545.862 277.494 546.225 278.219 546.769C278.945 547.314 279.489 548.07 279.852 549.037C280.276 549.945 280.487 551.154 280.487 552.666V572.171C280.487 574.651 281.092 576.435 282.302 577.524C283.511 578.552 285.265 579.066 287.563 579.066C288.955 579.066 290.073 578.945 290.92 578.703C291.827 578.461 292.523 578.219 293.007 577.977V546.225C293.611 546.044 294.549 545.862 295.819 545.681C297.15 545.499 298.51 545.409 299.901 545.409C301.232 545.409 302.411 545.499 303.439 545.681C304.528 545.862 305.435 546.225 306.161 546.769C306.887 547.314 307.431 548.07 307.794 549.037C308.217 549.945 308.429 551.154 308.429 552.666V580.245C308.429 583.269 307.159 585.537 304.619 587.049C302.502 588.38 299.962 589.378 296.998 590.043C294.095 590.769 290.92 591.132 287.473 591.132C284.207 591.132 281.183 590.769 278.401 590.043C275.679 589.317 273.32 588.198 271.325 586.686C269.329 585.174 267.787 583.239 266.698 580.88C265.609 578.461 265.065 575.558 265.065 572.171V546.225Z" fill="black"/>
<path d="M257.609 576.526C257.609 581.122 255.885 584.721 252.438 587.321C248.99 589.922 243.91 591.222 237.197 591.222C234.657 591.222 232.298 591.041 230.121 590.678C227.943 590.315 226.068 589.771 224.496 589.045C222.984 588.259 221.774 587.291 220.867 586.142C220.02 584.993 219.597 583.632 219.597 582.06C219.597 580.608 219.9 579.398 220.504 578.431C221.109 577.403 221.835 576.556 222.682 575.891C224.436 576.858 226.431 577.735 228.669 578.521C230.967 579.247 233.598 579.61 236.562 579.61C238.437 579.61 239.858 579.338 240.826 578.794C241.854 578.249 242.368 577.524 242.368 576.616C242.368 575.77 242.005 575.104 241.279 574.621C240.553 574.137 239.344 573.744 237.65 573.441L234.929 572.897C229.667 571.869 225.736 570.266 223.135 568.089C220.595 565.851 219.325 562.676 219.325 558.563C219.325 556.325 219.809 554.299 220.776 552.485C221.744 550.67 223.105 549.158 224.859 547.949C226.613 546.739 228.699 545.802 231.119 545.136C233.598 544.471 236.32 544.139 239.283 544.139C241.521 544.139 243.608 544.32 245.543 544.683C247.539 544.985 249.263 545.469 250.714 546.134C252.166 546.8 253.315 547.677 254.161 548.765C255.008 549.793 255.432 551.033 255.432 552.485C255.432 553.876 255.159 555.085 254.615 556.114C254.131 557.081 253.496 557.898 252.71 558.563C252.226 558.261 251.5 557.958 250.533 557.656C249.565 557.293 248.507 556.991 247.357 556.749C246.208 556.446 245.029 556.204 243.819 556.023C242.67 555.841 241.612 555.751 240.644 555.751C238.648 555.751 237.106 555.993 236.017 556.476C234.929 556.9 234.384 557.595 234.384 558.563C234.384 559.228 234.687 559.773 235.292 560.196C235.896 560.619 237.046 561.012 238.739 561.375L241.551 562.01C247.357 563.341 251.47 565.186 253.889 567.544C256.369 569.843 257.609 572.836 257.609 576.526Z" fill="black"/>
<path d="M193.939 591.132C190.371 591.132 187.044 590.648 183.96 589.68C180.936 588.652 178.275 587.14 175.976 585.144C173.739 583.148 171.954 580.638 170.624 577.614C169.354 574.59 168.719 571.052 168.719 567C168.719 563.008 169.354 559.591 170.624 556.749C171.954 553.846 173.678 551.487 175.795 549.672C177.912 547.798 180.331 546.437 183.053 545.59C185.774 544.683 188.556 544.229 191.399 544.229C194.604 544.229 197.507 544.713 200.108 545.681C202.769 546.648 205.037 547.979 206.912 549.672C208.847 551.366 210.329 553.392 211.357 555.751C212.446 558.109 212.99 560.68 212.99 563.462C212.99 565.518 212.416 567.091 211.266 568.179C210.117 569.268 208.515 569.963 206.458 570.266L184.05 573.623C184.716 575.618 186.077 577.13 188.133 578.159C190.189 579.126 192.548 579.61 195.209 579.61C197.689 579.61 200.017 579.308 202.194 578.703C204.432 578.038 206.247 577.282 207.638 576.435C208.605 577.04 209.422 577.886 210.087 578.975C210.752 580.064 211.085 581.213 211.085 582.422C211.085 585.144 209.815 587.17 207.275 588.501C205.339 589.529 203.162 590.224 200.743 590.587C198.324 590.95 196.056 591.132 193.939 591.132ZM191.399 555.479C189.947 555.479 188.677 555.72 187.588 556.204C186.56 556.688 185.714 557.323 185.048 558.109C184.383 558.835 183.869 559.682 183.506 560.65C183.204 561.557 183.022 562.494 182.962 563.462L198.475 560.922C198.293 559.712 197.628 558.503 196.479 557.293C195.33 556.083 193.637 555.479 191.399 555.479Z" fill="black"/>
<path d="M144.396 534.704C145.061 534.583 146.12 534.432 147.571 534.25C149.023 534.008 150.414 533.887 151.744 533.887C153.135 533.887 154.345 534.008 155.373 534.25C156.462 534.432 157.369 534.794 158.095 535.339C158.82 535.883 159.365 536.639 159.728 537.607C160.09 538.574 160.272 539.844 160.272 541.417V574.983C160.272 580.366 158.73 584.418 155.645 587.14C152.561 589.801 148.025 591.132 142.037 591.132C138.892 591.132 136.352 590.648 134.417 589.68C133.026 589.015 131.998 588.108 131.332 586.958C130.727 585.809 130.425 584.509 130.425 583.057C130.425 581.848 130.576 580.789 130.879 579.882C131.242 578.975 131.665 578.249 132.149 577.705C133.298 577.947 134.266 578.128 135.052 578.249C135.898 578.31 136.806 578.34 137.773 578.34C140.132 578.34 141.826 577.765 142.854 576.616C143.882 575.407 144.396 573.653 144.396 571.355V534.704Z" fill="black"/>
</svg>
